<svg xmlns="http://www.w3.org/2000/svg" x="0px" y="0px" width="100" height="100" viewBox="0 0 48 48">
    <path fill="#eba400"
        d="M45,30c0,0.35-0.1,0.7-0.28,1.01L31.51,30l13.21-1.01C44.9,29.3,45,29.65,45,30z"></path>
    <linearGradient id="K2TlVgt3XTGiG8lBM2DF6a_eKDChMKt75eu_gr1" x1="39.84" x2="16.836" y1="41.496"
        y2="30.77" gradientUnits="userSpaceOnUse">
        <stop offset="0" stop-color="#2a96f4"></stop>
        <stop offset=".535" stop-color="#2895f3"></stop>
        <stop offset=".728" stop-color="#2190ee"></stop>
        <stop offset=".865" stop-color="#1687e7"></stop>
        <stop offset=".976" stop-color="#057bdc"></stop>
        <stop offset="1" stop-color="#0077d9"></stop>
    </linearGradient>
    <path fill="url(#K2TlVgt3XTGiG8lBM2DF6a_eKDChMKt75eu_gr1)"
        d="M45,30c0,0.35-0.1,0.7-0.28,1.01l-5.63,10C38.74,41.62,38.08,42,37.37,42H11.54 c-0.35,0-0.69-0.09-0.99-0.27L11.45,30H45z"></path>
    <linearGradient id="K2TlVgt3XTGiG8lBM2DF6b_eKDChMKt75eu_gr2" x1="3.522" x2="24.656" y1="30.11"
        y2="17.909" gradientUnits="userSpaceOnUse">
        <stop offset="0" stop-color="#4caf50"></stop>
        <stop offset=".486" stop-color="#4aae50"></stop>
        <stop offset=".661" stop-color="#43a94e"></stop>
        <stop offset=".786" stop-color="#38a14c"></stop>
        <stop offset=".887" stop-color="#279648"></stop>
        <stop offset=".972" stop-color="#184"></stop>
        <stop offset="1" stop-color="#088242"></stop>
    </linearGradient>
    <path fill="url(#K2TlVgt3XTGiG8lBM2DF6b_eKDChMKt75eu_gr2)"
        d="M28.234,11.67L10.55,41.73h-0.01c-0.3-0.17-0.55-0.42-0.73-0.73L4.3,31.13 c-0.36-0.62-0.36-1.39,0-2.01L16.93,7c0.18-0.31,0.43-0.56,0.73-0.73h0.01L28.234,11.67z"></path>
    <linearGradient id="K2TlVgt3XTGiG8lBM2DF6c_eKDChMKt75eu_gr3" x1="31.335" x2="31.335" y1="6"
        y2="30" gradientUnits="userSpaceOnUse">
        <stop offset="0" stop-color="#ffd747"></stop>
        <stop offset=".482" stop-color="#fed645"></stop>
        <stop offset=".655" stop-color="#fdd13e"></stop>
        <stop offset=".779" stop-color="#f9c833"></stop>
        <stop offset=".879" stop-color="#f4bc22"></stop>
        <stop offset=".964" stop-color="#eead0c"></stop>
        <stop offset="1" stop-color="#eba400"></stop>
    </linearGradient>
    <path fill="url(#K2TlVgt3XTGiG8lBM2DF6c_eKDChMKt75eu_gr3)"
        d="M45,30H31.511L17.67,6.27C17.97,6.09,18.31,6,18.66,6h11.71c0.71,0,1.37,0.38,1.72,0.99 l12.63,22C44.9,29.3,45,29.65,45,30z"></path>
</svg>